<svg xmlns="http://www.w3.org/2000/svg" aria-hidden="true" focusable="false" data-prefix="fab" data-icon="action"  role="img" viewBox="0 0 34 32">
<path fill="#109cf1" style="fill: var(--color2, #109cf1)" d="M2.246 10.79h8.545v-8.545h11.666v9.409h2.246v-9.409c0-0.596-0.237-1.167-0.658-1.588s-0.992-0.658-1.588-0.658h-14.742l-7.714 7.714v21.479c0 0.596 0.237 1.167 0.658 1.588s0.992 0.658 1.588 0.658h20.21c0.596 0 1.167-0.237 1.588-0.658s0.658-0.992 0.658-1.588h-22.456v-18.403zM2.246 8.634l6.389-6.389h0.348v6.737h-6.737v-0.348z"></path>
<path fill="#109cf1" style="fill: var(--color2, #109cf1)" d="M27.307 13.867c-0.215-0.184-0.491-0.28-0.774-0.269s-0.551 0.128-0.751 0.328c-0.2 0.2-0.317 0.468-0.328 0.751s0.085 0.559 0.269 0.774l3.649 3.638h-13.653c-0.298 0-0.583 0.118-0.794 0.329s-0.329 0.496-0.329 0.794c0 0.298 0.118 0.583 0.329 0.794s0.496 0.329 0.794 0.329h13.687l-3.683 3.683c-0.118 0.101-0.213 0.224-0.28 0.364s-0.105 0.291-0.111 0.446c-0.006 0.155 0.020 0.309 0.077 0.453s0.142 0.275 0.251 0.384 0.24 0.195 0.384 0.251c0.144 0.056 0.298 0.083 0.453 0.077s0.306-0.044 0.446-0.111 0.263-0.163 0.364-0.28l6.377-6.389-6.377-6.344z"></path>
</svg>