<svg xmlns="http://www.w3.org/2000/svg" aria-hidden="true" focusable="false" data-prefix="fab" data-icon="file"  role="img" viewBox="0 0 27 32">
<path d="M18.667 0h-10.667c-1.467 0-2.667 1.2-2.667 2.667v21.333c0 1.467 1.2 2.667 2.667 2.667h16c1.467 0 2.667-1.2 2.667-2.667v-16l-8-8zM24 24h-16v-21.333h9.333v6.667h6.667v14.667zM2.667 5.333v24h21.333v2.667h-21.333c-1.467 0-2.667-1.2-2.667-2.667v-24h2.667zM10.667 13.333v2.667h10.667v-2.667h-10.667zM10.667 18.667v2.667h6.667v-2.667h-6.667z"></path>
</svg>