<svg xmlns="http://www.w3.org/2000/svg" aria-hidden="true" focusable="false" data-prefix="fab" data-icon="formula"  role="img" viewBox="0 0 32 32">
<path d="M16.328 0.455c-0.819-0.343-1.715-0.496-2.612-0.446s-1.767 0.3-2.537 0.73c-0.77 0.43-1.416 1.027-1.884 1.74s-0.743 1.521-0.802 2.354l-0.249 3.436h-2.667c-0.295 0-0.578 0.109-0.787 0.303s-0.326 0.457-0.326 0.732c0 0.274 0.117 0.538 0.326 0.732s0.492 0.303 0.787 0.303h2.52l-0.979 13.651c-0.036 0.5-0.201 0.984-0.482 1.412s-0.669 0.785-1.131 1.043c-0.462 0.258-0.984 0.408-1.522 0.437s-1.075-0.062-1.567-0.268l-0.835-0.35c-0.134-0.058-0.278-0.090-0.425-0.096s-0.294 0.017-0.432 0.064-0.265 0.121-0.372 0.214c-0.108 0.094-0.194 0.206-0.254 0.331s-0.094 0.26-0.097 0.397c-0.004 0.137 0.021 0.273 0.075 0.401s0.133 0.245 0.235 0.343 0.224 0.178 0.359 0.232l0.835 0.35c0.819 0.343 1.715 0.496 2.611 0.446s1.767-0.3 2.536-0.73c0.77-0.43 1.416-1.027 1.884-1.739s0.744-1.52 0.803-2.353l0.988-13.788h4.154c0.295 0 0.578-0.109 0.787-0.303s0.326-0.457 0.326-0.732-0.117-0.538-0.326-0.732c-0.209-0.194-0.492-0.303-0.787-0.303h-4.007l0.238-3.301c0.036-0.5 0.201-0.985 0.482-1.412s0.669-0.786 1.131-1.044c0.462-0.258 0.985-0.408 1.523-0.437s1.076 0.063 1.567 0.269l0.837 0.35c0.134 0.058 0.278 0.090 0.425 0.096s0.294-0.017 0.432-0.064c0.138-0.048 0.265-0.121 0.372-0.214s0.194-0.206 0.254-0.331 0.094-0.26 0.097-0.397c0.004-0.137-0.021-0.273-0.075-0.401s-0.133-0.244-0.235-0.343c-0.102-0.099-0.224-0.178-0.359-0.232l-0.835-0.35h-0.002zM15.95 14.578c0.061-0.056 0.134-0.098 0.215-0.123s0.167-0.033 0.251-0.022c0.085 0.011 0.165 0.039 0.236 0.083s0.13 0.103 0.172 0.172l2.945 4.792-6.077 5.651c-0.103 0.096-0.185 0.211-0.241 0.336s-0.085 0.261-0.085 0.397c0 0.136 0.029 0.271 0.085 0.397s0.138 0.24 0.241 0.336c0.209 0.194 0.492 0.304 0.788 0.304 0.146 0 0.291-0.027 0.426-0.079s0.258-0.128 0.362-0.225l5.647-5.251 2.644 4.303c0.213 0.345 0.508 0.64 0.863 0.862s0.76 0.365 1.184 0.417c0.424 0.053 0.855 0.014 1.261-0.114s0.773-0.34 1.076-0.621l0.681-0.631c0.209-0.194 0.326-0.458 0.326-0.732s-0.118-0.538-0.327-0.732c-0.103-0.096-0.226-0.172-0.361-0.224s-0.28-0.079-0.426-0.079c-0.295 0-0.579 0.109-0.787 0.304l-0.679 0.631c-0.061 0.056-0.134 0.099-0.215 0.124s-0.167 0.033-0.252 0.023c-0.085-0.011-0.166-0.039-0.237-0.084s-0.13-0.104-0.172-0.173l-2.945-4.792 6.077-5.651c0.103-0.096 0.186-0.21 0.242-0.336s0.085-0.26 0.085-0.396c0-0.136-0.029-0.271-0.084-0.396s-0.138-0.24-0.241-0.336-0.226-0.173-0.361-0.225c-0.135-0.052-0.28-0.079-0.426-0.079s-0.291 0.027-0.426 0.079c-0.135 0.052-0.258 0.128-0.361 0.224l-5.649 5.253-2.644-4.305c-0.212-0.345-0.507-0.64-0.862-0.862s-0.76-0.365-1.184-0.417c-0.424-0.053-0.855-0.014-1.26 0.114s-0.773 0.34-1.076 0.621l-0.681 0.631c-0.103 0.096-0.185 0.21-0.241 0.336s-0.085 0.261-0.085 0.397c0 0.136 0.029 0.271 0.085 0.397s0.138 0.24 0.241 0.336c0.103 0.096 0.226 0.173 0.362 0.225s0.28 0.079 0.426 0.079 0.291-0.027 0.426-0.079c0.135-0.052 0.258-0.128 0.362-0.225l0.679-0.633h0.002z"></path>
</svg>