<svg xmlns="http://www.w3.org/2000/svg" aria-hidden="true" focusable="false" data-prefix="fab" data-icon="info"  role="img" viewBox="0 0 32 32">
<path fill="#109cf1" style="fill: var(--color2, #109cf1)" d="M16 0c4.244 0 8.313 1.686 11.314 4.686s4.686 7.070 4.686 11.314c0 4.244-1.686 8.313-4.686 11.314s-7.070 4.686-11.314 4.686c-4.243 0-8.313-1.686-11.314-4.686s-4.686-7.070-4.686-11.314c0-4.243 1.686-8.313 4.686-11.314s7.070-4.686 11.314-4.686zM16 1.684c-3.797 0-7.438 1.508-10.123 4.193s-4.193 6.326-4.193 10.123c0 3.797 1.508 7.438 4.193 10.123s6.326 4.193 10.123 4.193c3.797 0 7.438-1.508 10.123-4.193s4.193-6.326 4.193-10.123c0-3.797-1.508-7.438-4.193-10.123s-6.326-4.193-10.123-4.193zM15.158 8.421v3.368h1.684v-3.368h-1.684zM15.158 15.158v8.421h1.684v-8.421h-1.684z"></path>
</svg>