<svg xmlns="http://www.w3.org/2000/svg" aria-hidden="true" focusable="false" data-prefix="fab" data-icon="reset"  role="img" viewBox="0 0 37 32">
<path fill="#109cf1" style="fill: var(--color4, #109cf1)" d="M22.222 8.889h-2.667v8.889l7.609 4.516 1.28-2.151-6.222-3.698v-7.556zM21.333 0c-4.243 0-8.313 1.686-11.314 4.686s-4.686 7.070-4.686 11.314h-5.333l7.040 7.164 7.182-7.164h-5.333c0-3.3 1.311-6.466 3.645-8.8s5.499-3.645 8.8-3.645c3.3 0 6.466 1.311 8.799 3.645s3.645 5.499 3.645 8.8c0 3.3-1.311 6.466-3.645 8.799s-5.499 3.645-8.799 3.645c-3.431 0-6.542-1.404-8.782-3.662l-2.524 2.524c1.478 1.494 3.239 2.679 5.181 3.485s4.024 1.217 6.126 1.208c4.244 0 8.313-1.686 11.314-4.686s4.686-7.070 4.686-11.314c0-4.243-1.686-8.313-4.686-11.314s-7.070-4.686-11.314-4.686z"></path>
</svg>