<svg xmlns="http://www.w3.org/2000/svg" aria-hidden="true" focusable="false" data-prefix="fab" data-icon="searched"  role="img" viewBox="0 0 32 32">
<path fill="#109cf1" style="fill: var(--color2, #109cf1)" d="M12.606 1.988c2.101-0.002 4.154 0.619 5.902 1.785s3.11 2.823 3.915 4.763c0.805 1.94 1.017 4.075 0.608 6.136s-1.419 3.953-2.904 5.439c-1.485 1.486-3.377 2.498-5.436 2.909s-4.196 0.201-6.136-0.603-3.6-2.164-4.767-3.911c-1.167-1.746-1.79-3.8-1.79-5.9 0.013-2.811 1.134-5.502 3.121-7.491s4.677-3.112 7.488-3.127zM12.606 0c-2.493 0-4.931 0.739-7.004 2.124s-3.689 3.354-4.643 5.657c-0.954 2.303-1.204 4.838-0.717 7.284s1.687 4.691 3.45 6.454c1.763 1.763 4.009 2.964 6.455 3.45s4.98 0.237 7.284-0.717c2.303-0.954 4.272-2.57 5.657-4.643s2.125-4.51 2.125-7.004c0-3.343-1.328-6.55-3.692-8.914s-5.57-3.692-8.914-3.692z"></path>
<path fill="#109cf1" style="fill: var(--color2, #109cf1)" d="M30.71 29.372l-7.147-7.195-1.377 1.367 7.147 7.195c0.090 0.090 0.196 0.162 0.314 0.212s0.244 0.075 0.371 0.075 0.254-0.024 0.372-0.073c0.118-0.048 0.225-0.119 0.316-0.209s0.162-0.197 0.212-0.314c0.049-0.118 0.075-0.244 0.075-0.371s-0.024-0.254-0.072-0.372c-0.048-0.118-0.12-0.225-0.209-0.316z"></path>
</svg>