<svg xmlns="http://www.w3.org/2000/svg" aria-hidden="true" focusable="false" data-prefix="fab" data-icon="uploadFailure"  role="img" viewBox="0 0 33 32">
<path fill="#b00020" style="fill: var(--color1, #b00020)" d="M14.682 12.077h3.52v8.8h-3.52v-8.8zM14.68 22.637h3.52v3.52h-3.52v-3.52z"></path>
<path fill="#b00020" style="fill: var(--color1, #b00020)" d="M19.551 1.869c-0.612-1.153-1.806-1.869-3.112-1.869s-2.499 0.716-3.112 1.871l-12.915 24.399c-0.287 0.536-0.429 1.137-0.412 1.744s0.191 1.2 0.507 1.719c0.311 0.522 0.753 0.953 1.281 1.252s1.126 0.454 1.733 0.452h25.833c1.246 0 2.374-0.637 3.017-1.704 0.315-0.52 0.489-1.112 0.506-1.719s-0.125-1.209-0.411-1.744l-12.917-24.401zM3.523 27.917l12.917-24.399 12.925 24.399h-25.842z"></path>
</svg>