<svg xmlns="http://www.w3.org/2000/svg" aria-hidden="true" focusable="false" data-prefix="fab" data-icon="uploadSuccess"  role="img" viewBox="0 0 32 32">
<path fill="#00b07b" style="fill: var(--color2, #00b07b)" d="M24.539 11.246c0.208-0.208 0.325-0.49 0.325-0.784s-0.117-0.576-0.325-0.784c-0.208-0.208-0.49-0.325-0.784-0.325s-0.576 0.117-0.784 0.325l-10.293 10.295-3.647-3.649c-0.208-0.208-0.49-0.325-0.784-0.325s-0.576 0.117-0.784 0.325c-0.208 0.208-0.325 0.49-0.325 0.784s0.117 0.576 0.325 0.784l4.431 4.431c0.103 0.103 0.225 0.185 0.36 0.241s0.279 0.085 0.425 0.085 0.29-0.029 0.425-0.085c0.135-0.056 0.257-0.138 0.36-0.241l11.077-11.077z"></path>
<path fill="#00b07b" style="fill: var(--color2, #00b07b)" d="M6.434 0.492c-1.576 0-3.087 0.626-4.201 1.74s-1.74 2.626-1.74 4.201v19.132c0 3.283 2.658 5.942 5.942 5.942h19.132c3.283 0 5.942-2.658 5.942-5.942v-19.132c0-3.283-2.658-5.942-5.942-5.942h-19.132zM2.708 6.434c0-2.058 1.668-3.726 3.726-3.726h19.132c2.058 0 3.726 1.668 3.726 3.726v19.132c0 2.058-1.668 3.726-3.726 3.726h-19.132c-0.988 0-1.936-0.393-2.635-1.091s-1.091-1.647-1.091-2.635v-19.132z"></path>
</svg>