<svg xmlns="http://www.w3.org/2000/svg" aria-hidden="true" focusable="false" data-prefix="fab" data-icon="users"  role="img" viewBox="0 0 32 32">
<path fill="#fff" style="fill: var(--color1, #fff)" d="M15.15 19.743c1.342-0.891 2.361-2.191 2.906-3.706s0.589-3.166 0.124-4.708-1.415-2.893-2.708-3.854c-1.293-0.96-2.861-1.479-4.472-1.479s-3.179 0.519-4.472 1.479c-1.293 0.96-2.243 2.312-2.708 3.854s-0.422 3.193 0.124 4.708c0.546 1.515 1.565 2.815 2.907 3.706-2.287 0.844-4.264 2.363-5.668 4.355-0.077 0.107-0.131 0.229-0.161 0.357s-0.033 0.262-0.011 0.392c0.022 0.13 0.070 0.254 0.14 0.366s0.162 0.208 0.27 0.284 0.23 0.13 0.358 0.158c0.129 0.029 0.262 0.032 0.392 0.009s0.254-0.071 0.365-0.143c0.111-0.071 0.207-0.163 0.282-0.272 0.923-1.313 2.148-2.384 3.572-3.124s3.005-1.126 4.61-1.126c1.605 0 3.186 0.386 4.61 1.126s2.649 1.811 3.573 3.124c0.075 0.108 0.171 0.199 0.282 0.27s0.235 0.118 0.364 0.141 0.262 0.019 0.39-0.009c0.128-0.029 0.25-0.083 0.357-0.158s0.199-0.172 0.269-0.283 0.118-0.235 0.14-0.364c0.022-0.13 0.019-0.262-0.010-0.39s-0.083-0.249-0.159-0.357c-1.404-1.992-3.381-3.511-5.668-4.355zM5.5 13.5c0-1.088 0.323-2.151 0.927-3.056s1.463-1.609 2.468-2.026c1.005-0.416 2.111-0.525 3.178-0.313s2.047 0.736 2.816 1.505c0.769 0.769 1.293 1.749 1.505 2.816s0.103 2.173-0.313 3.178c-0.416 1.005-1.121 1.864-2.026 2.468s-1.968 0.927-3.056 0.927c-1.458-0.002-2.856-0.582-3.887-1.613s-1.611-2.429-1.613-3.887zM30.766 25.491c-0.107 0.076-0.229 0.129-0.357 0.158s-0.261 0.032-0.39 0.010-0.253-0.070-0.364-0.141c-0.111-0.070-0.207-0.162-0.283-0.269-0.924-1.312-2.15-2.382-3.573-3.122s-3.005-1.126-4.609-1.128c-0.265 0-0.52-0.105-0.707-0.293s-0.293-0.442-0.293-0.707 0.105-0.52 0.293-0.707c0.188-0.188 0.442-0.293 0.707-0.293 0.785-0.001 1.561-0.17 2.276-0.496s1.351-0.801 1.867-1.394c0.515-0.592 0.898-1.288 1.122-2.041s0.284-1.545 0.177-2.323c-0.108-0.778-0.381-1.524-0.801-2.188s-0.977-1.23-1.634-1.66c-0.657-0.43-1.399-0.715-2.175-0.835s-1.569-0.072-2.325 0.14c-0.255 0.071-0.527 0.037-0.758-0.092s-0.4-0.346-0.472-0.6c-0.072-0.255-0.039-0.527 0.090-0.758s0.344-0.401 0.599-0.474c1.72-0.485 3.557-0.34 5.18 0.409s2.924 2.054 3.671 3.678c0.746 1.624 0.887 3.462 0.399 5.181s-1.576 3.207-3.065 4.196c2.287 0.844 4.263 2.362 5.668 4.355 0.153 0.217 0.213 0.485 0.168 0.747s-0.193 0.494-0.409 0.647z"></path>
<path fill="none" stroke="#000" style="stroke: var(--color2, #fff)" stroke-linejoin="miter" stroke-linecap="butt" stroke-miterlimit="4" stroke-width="1.3333" d="M15.15 19.743c1.342-0.891 2.361-2.191 2.906-3.706s0.589-3.166 0.124-4.708-1.415-2.893-2.708-3.854c-1.293-0.96-2.861-1.479-4.472-1.479s-3.179 0.519-4.472 1.479c-1.293 0.96-2.243 2.312-2.708 3.854s-0.422 3.193 0.124 4.708c0.546 1.515 1.565 2.815 2.907 3.706-2.287 0.844-4.264 2.363-5.668 4.355-0.077 0.107-0.131 0.229-0.161 0.357s-0.033 0.262-0.011 0.392c0.022 0.13 0.070 0.254 0.14 0.366s0.162 0.208 0.27 0.284 0.23 0.13 0.358 0.158c0.129 0.029 0.262 0.032 0.392 0.009s0.254-0.071 0.365-0.143c0.111-0.071 0.207-0.163 0.282-0.272 0.923-1.313 2.148-2.384 3.572-3.124s3.005-1.126 4.61-1.126c1.605 0 3.186 0.386 4.61 1.126s2.649 1.811 3.573 3.124c0.075 0.108 0.171 0.199 0.282 0.27s0.235 0.118 0.364 0.141 0.262 0.019 0.39-0.009c0.128-0.029 0.25-0.083 0.357-0.158s0.199-0.172 0.269-0.283 0.118-0.235 0.14-0.364c0.022-0.13 0.019-0.262-0.010-0.39s-0.083-0.249-0.159-0.357c-1.404-1.992-3.381-3.511-5.668-4.355zM5.5 13.5c0-1.088 0.323-2.151 0.927-3.056s1.463-1.609 2.468-2.026c1.005-0.416 2.111-0.525 3.178-0.313s2.047 0.736 2.816 1.505c0.769 0.769 1.293 1.749 1.505 2.816s0.103 2.173-0.313 3.178c-0.416 1.005-1.121 1.864-2.026 2.468s-1.968 0.927-3.056 0.927c-1.458-0.002-2.856-0.582-3.887-1.613s-1.611-2.429-1.613-3.887zM30.766 25.491c-0.107 0.076-0.229 0.129-0.357 0.158s-0.261 0.032-0.39 0.010-0.253-0.070-0.364-0.141c-0.111-0.070-0.207-0.162-0.283-0.269-0.924-1.312-2.15-2.382-3.573-3.122s-3.005-1.126-4.609-1.128c-0.265 0-0.52-0.105-0.707-0.293s-0.293-0.442-0.293-0.707 0.105-0.52 0.293-0.707c0.188-0.188 0.442-0.293 0.707-0.293 0.785-0.001 1.561-0.17 2.276-0.496s1.351-0.801 1.867-1.394c0.515-0.592 0.898-1.288 1.122-2.041s0.284-1.545 0.177-2.323c-0.108-0.778-0.381-1.524-0.801-2.188s-0.977-1.23-1.634-1.66c-0.657-0.43-1.399-0.715-2.175-0.835s-1.569-0.072-2.325 0.14c-0.255 0.071-0.527 0.037-0.758-0.092s-0.4-0.346-0.472-0.6c-0.072-0.255-0.039-0.527 0.090-0.758s0.344-0.401 0.599-0.474c1.72-0.485 3.557-0.34 5.18 0.409s2.924 2.054 3.671 3.678c0.746 1.624 0.887 3.462 0.399 5.181s-1.576 3.207-3.065 4.196c2.287 0.844 4.263 2.362 5.668 4.355 0.153 0.217 0.213 0.485 0.168 0.747s-0.193 0.494-0.409 0.647z"></path>
</svg>