<svg xmlns="http://www.w3.org/2000/svg" aria-hidden="true" focusable="false" data-prefix="fab" data-icon="zip"  role="img" viewBox="0 0 28 32">
<path d="M5.333 0.444h11.111v2.222h-11.111c-0.589 0-1.155 0.234-1.571 0.651s-0.651 0.982-0.651 1.571v22.222c0 0.589 0.234 1.155 0.651 1.571s0.982 0.651 1.571 0.651h17.778c0.589 0 1.155-0.234 1.571-0.651s0.651-0.982 0.651-1.571v-15.556h2.222v15.556c0 1.179-0.468 2.309-1.302 3.143s-1.964 1.302-3.143 1.302h-17.778c-1.179 0-2.309-0.468-3.143-1.302s-1.302-1.964-1.302-3.143v-22.222c0-1.179 0.468-2.309 1.302-3.143s1.964-1.302 3.143-1.302z"></path>
<path d="M16.444 8.222v-7.778l11.111 11.111h-7.778c-0.884 0-1.732-0.351-2.357-0.976s-0.976-1.473-0.976-2.357z"></path>
<path d="M7.556 17.111c0-0.589 0.234-1.155 0.651-1.571s0.982-0.651 1.571-0.651h2.222c0.589 0 1.155 0.234 1.571 0.651s0.651 0.982 0.651 1.571v2.084l0.889 3.553c0.111 0.445 0.081 0.913-0.084 1.34s-0.459 0.793-0.84 1.047l-2.067 1.378c-0.365 0.244-0.794 0.374-1.233 0.374s-0.868-0.13-1.233-0.374l-2.064-1.378c-0.381-0.254-0.674-0.62-0.839-1.047s-0.194-0.895-0.083-1.34l0.889-3.553v-2.084zM12 17.111h-2.222v2.084c-0 0.182-0.022 0.363-0.067 0.54l-0.889 3.551 2.067 1.378 2.064-1.378-0.889-3.551c-0.043-0.177-0.065-0.358-0.064-0.54v-2.084z"></path>
<path d="M9.778 2.667h3.333v2.222h-3.333v-2.222zM7.556 4.889h3.333v2.222h-3.333v-2.222zM9.778 7.111h3.333v2.222h-3.333v-2.222zM7.556 9.333h3.333v2.222h-3.333v-2.222zM9.778 11.556h3.333v2.222h-3.333v-2.222z"></path>
</svg>